<?xml version="1.0" standalone="no"?>
<!DOCTYPE svg PUBLIC "-//W3C//DTD SVG 20010904//EN"
 "http://www.w3.org/TR/2001/REC-SVG-20010904/DTD/svg10.dtd">
<svg version="1.0" xmlns="http://www.w3.org/2000/svg"
 width="130.000000pt" height="80.000000pt" viewBox="0 0 130.000000 80.000000"
 preserveAspectRatio="xMidYMid meet">

<g transform="translate(0.000000,80.000000) scale(0.100000,-0.100000)"
fill="#000000" stroke="none">
<path d="M645 723 c-50 -26 -165 -110 -165 -122 -1 -3 -19 -26 -40 -50 l-40
-44 -63 29 c-76 34 -142 37 -209 6 -56 -24 -60 -36 -18 -50 40 -14 115 -66
171 -120 109 -102 165 -127 268 -120 71 5 98 17 235 101 78 48 138 64 276 71
168 8 165 6 103 71 l-53 55 -68 -44 c-108 -69 -217 -105 -317 -106 -89 0 -249
53 -262 87 -8 19 48 75 105 106 26 14 78 33 115 43 69 17 69 17 63 47 -6 29
-32 68 -45 67 -3 -1 -28 -13 -56 -27z"/>
</g>
</svg>
